<svg fill="currentColor" width="54" height="57" viewBox="0 0 54 57" xmlns="http://www.w3.org/2000/svg">
<path d="M49.5 16.5098V52.5098H4.5V16.5098H49.5ZM54 12.0098H0V57.0098H54V12.0098Z"/>
<path d="M16.5 32.2598H12V36.7598H16.5V32.2598Z"/>
<path d="M29.25 32.2598H24.75V36.7598H29.25V32.2598Z"/>
<path d="M42 32.2598H37.5V36.7598H42V32.2598Z"/>
<path d="M16.5 42.0098H12V46.5098H16.5V42.0098Z"/>
<path d="M29.25 42.0098H24.75V46.5098H29.25V42.0098Z"/>
<path d="M42 42.0098H37.5V46.5098H42V42.0098Z"/>
<path d="M16.5 22.5098H12V27.0098H16.5V22.5098Z"/>
<path d="M29.25 22.5098H24.75V27.0098H29.25V22.5098Z"/>
<path d="M42 22.5098H37.5V27.0098H42V22.5098Z"/>
<path d="M16.5 0.00976562H12V7.50977H16.5V0.00976562Z"/>
<path d="M42 0.00976562H37.5V7.50977H42V0.00976562Z"/>
</svg>
