<svg fill="current" width="56" height="56" viewBox="0 0 56 56" xmlns="http://www.w3.org/2000/svg">
<path d="M45.8382 42.6608L42.6562 45.8428L52.4073 55.5938L55.5892 52.4118L45.8382 42.6608Z" fill="#080808"/>
<path d="M24 0.00976562C10.77 0.00976562 0 10.7798 0 24.0098C0 37.2398 10.77 48.0098 24 48.0098C37.23 48.0098 48 37.2398 48 24.0098C48 10.7798 37.23 0.00976562 24 0.00976562ZM24 43.5098C13.25 43.5098 4.5 34.7598 4.5 24.0098C4.5 13.2598 13.25 4.50977 24 4.50977C34.75 4.50977 43.5 13.2598 43.5 24.0098C43.5 34.7598 34.75 43.5098 24 43.5098Z" fill="#080808"/>
</svg>
