<svg width="28" height="28" viewBox="0 0 28 28" fill="none" xmlns="http://www.w3.org/2000/svg">
<path d="M6.43994 22.1667C7.18661 19.6 8.58661 18.6667 10.1966 18.6667H17.8033C19.4133 18.6667 20.8133 19.6 21.5599 22.1667" stroke="black" stroke-width="2" stroke-linecap="round" stroke-linejoin="round"/>
<path d="M14 15.1667C15.933 15.1667 17.5 13.5997 17.5 11.6667C17.5 9.73366 15.933 8.16666 14 8.16666C12.067 8.16666 10.5 9.73366 10.5 11.6667C10.5 13.5997 12.067 15.1667 14 15.1667Z" stroke="black" stroke-width="2" stroke-linecap="round" stroke-linejoin="round"/>
<path d="M13.9999 25.6667C20.4432 25.6667 25.6666 20.4433 25.6666 14C25.6666 7.55669 20.4432 2.33334 13.9999 2.33334C7.5566 2.33334 2.33325 7.55669 2.33325 14C2.33325 20.4433 7.5566 25.6667 13.9999 25.6667Z" stroke="black" stroke-width="2" stroke-linecap="round" stroke-linejoin="round"/>
</svg>
