<svg width="60" height="51" viewBox="0 0 60 51" fill="currentColor" xmlns="http://www.w3.org/2000/svg">
<path d="M0 0V42H9L7.5 51L15 42H60V0H0ZM55.5 37.5H4.5V4.5H55.5V37.5Z" />
<path d="M55.5 4.5H4.5V37.5H55.5V4.5Z" />
<path d="M21 17.25H13.5V24.75H21V17.25Z" fill="white"/>
<path d="M19.5 18.75H15V23.25H19.5V18.75Z" fill="white"/>
<path d="M33.75 17.25H26.25V24.75H33.75V17.25Z" fill="white"/>
<path d="M32.25 18.75H27.75V23.25H32.25V18.75Z" fill="white"/>
<path d="M46.5 17.25H39V24.75H46.5V17.25Z" fill="white"/>
<path d="M45 18.75H40.5V23.25H45V18.75Z" fill="white"/>
</svg>
