<svg  fill="currentColor" width="54" height="59" viewBox="0 0 54 59" xmlns="http://www.w3.org/2000/svg">
<path d="M54 13.99H0V58.99H54V13.99Z" />
<path d="M16.5 34.24H12V38.74H16.5V34.24Z" fill="white"/>
<path d="M29.25 34.24H24.75V38.74H29.25V34.24Z" fill="white"/>
<path d="M42 34.24H37.5V38.74H42V34.24Z" fill="white"/>
<path d="M16.5 43.99H12V48.49H16.5V43.99Z" fill="white"/>
<path d="M29.25 43.99H24.75V48.49H29.25V43.99Z" fill="white"/>
<path d="M42 43.99H37.5V48.49H42V43.99Z" fill="white"/>
<path d="M16.5 24.49H12V28.99H16.5V24.49Z" fill="white"/>
<path d="M29.25 24.49H24.75V28.99H29.25V24.49Z" fill="white"/>
<path d="M42 24.49H37.5V28.99H42V24.49Z" fill="white"/>
<path d="M17.75 10.74V0.73999L10.75 0.73999V10.74H17.75Z" />
<path d="M16.5 1.98999H12V9.48999H16.5V1.98999Z" />
<path d="M43.25 10.74V0.73999L36.25 0.73999V10.74H43.25Z" />
<path d="M42 1.98999H37.5V9.48999H42V1.98999Z" />
</svg>
