<svg width="60" height="53" viewBox="0 0 60 53" fill="currentColor" xmlns="http://www.w3.org/2000/svg">
<path d="M0 10.9902V52.9902H60V10.9902H0Z" />
<path d="M29.25 43.2402C35.45 43.2402 40.5 38.1902 40.5 31.9902C40.5 25.7902 35.45 20.7402 29.25 20.7402C23.05 20.7402 18 25.7902 18 31.9902C18 38.1902 23.05 43.2402 29.25 43.2402ZM29.25 25.2402C32.97 25.2402 36 28.2702 36 31.9902C36 35.7102 32.97 38.7402 29.25 38.7402C25.53 38.7402 22.5 35.7102 22.5 31.9902C22.5 28.2702 25.53 25.2402 29.25 25.2402Z" fill="white"/>
<path d="M39.5 0.740234H19V7.74023H39.5V0.740234Z" />
<path d="M38.25 1.99023H20.25V6.49023H38.25V1.99023Z" />
</svg>
