<svg width="60" height="51" viewBox="0 0 60 51" fill="currentColor" xmlns="http://www.w3.org/2000/svg">
<path d="M0 9.00977V51.0098H60V9.00977H0ZM55.5 46.5098H4.5V13.5098H55.5V46.5098Z"/>
<path d="M29.25 41.2598C35.45 41.2598 40.5 36.2098 40.5 30.0098C40.5 23.8098 35.45 18.7598 29.25 18.7598C23.05 18.7598 18 23.8098 18 30.0098C18 36.2098 23.05 41.2598 29.25 41.2598ZM29.25 23.2598C32.97 23.2598 36 26.2898 36 30.0098C36 33.7298 32.97 36.7598 29.25 36.7598C25.53 36.7598 22.5 33.7298 22.5 30.0098C22.5 26.2898 25.53 23.2598 29.25 23.2598Z"/>
<path d="M38.25 0.00976562H20.25V4.50977H38.25V0.00976562Z"/>
</svg>
